<svg width="235" height="235" viewBox="0 0 235 235" fill="none" xmlns="http://www.w3.org/2000/svg">
<g filter="url(#filter0_d_615_49)">
<circle cx="111.5" cy="111.5" r="104" stroke="#545454" stroke-width="9" shape-rendering="crispEdges"/>
</g>
<path d="M61.2464 63.8519C60.8512 63.4248 60.5378 62.9178 60.3239 62.3597C60.1101 61.8017 60 61.2036 60 60.5996C60 59.9955 60.1101 59.3974 60.3239 58.8394C60.5378 58.2813 60.8512 57.7743 61.2464 57.3472C61.6415 56.9201 62.1106 56.5813 62.6269 56.3501C63.1432 56.119 63.6965 56 64.2554 56C64.8142 56 65.3675 56.119 65.8838 56.3501C66.4001 56.5813 66.8692 56.9201 67.2644 57.3472L111.005 104.635L154.746 57.3472C155.142 56.9201 155.611 56.5813 156.127 56.3501C156.643 56.119 157.197 56 157.755 56C158.314 56 158.868 56.119 159.384 56.3501C159.9 56.5813 160.369 56.9201 160.764 57.3472C161.16 57.7743 161.473 58.2813 161.687 58.8394C161.901 59.3974 162.011 59.9955 162.011 60.5996C162.011 61.2036 161.901 61.8017 161.687 62.3597C161.473 62.9178 161.16 63.4248 160.764 63.8519L117.015 111.131L160.764 158.41C161.16 158.837 161.473 159.344 161.687 159.902C161.901 160.46 162.011 161.058 162.011 161.662C162.011 162.266 161.901 162.864 161.687 163.422C161.473 163.98 161.16 164.487 160.764 164.914C160.369 165.342 159.9 165.68 159.384 165.911C158.868 166.143 158.314 166.262 157.755 166.262C157.197 166.262 156.643 166.143 156.127 165.911C155.611 165.68 155.142 165.342 154.746 164.914L111.005 117.626L67.2644 164.914C66.8692 165.342 66.4001 165.68 65.8838 165.911C65.3675 166.143 64.8142 166.262 64.2554 166.262C63.6965 166.262 63.1432 166.143 62.6269 165.911C62.1106 165.68 61.6415 165.342 61.2464 164.914C60.8512 164.487 60.5378 163.98 60.3239 163.422C60.1101 162.864 60 162.266 60 161.662C60 161.058 60.1101 160.46 60.3239 159.902C60.5378 159.344 60.8512 158.837 61.2464 158.41L104.996 111.131L61.2464 63.8519Z" fill="#B82A2A"/>
<defs>
<filter id="filter0_d_615_49" x="0.3" y="0.3" width="234.4" height="234.4" filterUnits="userSpaceOnUse" color-interpolation-filters="sRGB">
<feFlood flood-opacity="0" result="BackgroundImageFix"/>
<feColorMatrix in="SourceAlpha" type="matrix" values="0 0 0 0 0 0 0 0 0 0 0 0 0 0 0 0 0 0 127 0" result="hardAlpha"/>
<feOffset dx="6" dy="6"/>
<feGaussianBlur stdDeviation="4.35"/>
<feComposite in2="hardAlpha" operator="out"/>
<feColorMatrix type="matrix" values="0 0 0 0 0 0 0 0 0 0 0 0 0 0 0 0 0 0 0.25 0"/>
<feBlend mode="normal" in2="BackgroundImageFix" result="effect1_dropShadow_615_49"/>
<feBlend mode="normal" in="SourceGraphic" in2="effect1_dropShadow_615_49" result="shape"/>
</filter>
</defs>
</svg>
