<svg width="103" height="49" viewBox="0 0 103 49" fill="none" xmlns="http://www.w3.org/2000/svg">
<path d="M8.52385 10.8092C3.30155 5.9508 -3.01452 13.4815 1.6005 17.7326L20.913 37.0451C27.3511 42.9968 32.9383 35.3447 27.9578 30.4861L8.52385 10.8092Z" fill="white"/>
<path d="M25.772 10.8086H12.4111L19.4559 17.9749C25.772 23.4407 30.8734 14.331 25.772 10.8086Z" fill="#05C5FC"/>
<path d="M4.65673 37.7793L18.0176 37.7793L10.9728 30.613C4.65673 25.1472 -0.444685 34.2569 4.65673 37.7793Z" fill="#05C5FC"/>
<mask id="path-4-outside-1_501_116" maskUnits="userSpaceOnUse" x="34.7383" y="5" width="56" height="20" fill="black">
<rect fill="white" x="34.7383" y="5" width="56" height="20"/>
<path d="M42.8033 24.4006C41.5393 24.4006 40.293 24.2671 39.0646 24C37.8539 23.7151 36.8836 23.3235 36.1537 22.825C35.9222 22.6647 35.8065 22.5223 35.8065 22.3977C35.8065 22.273 35.8421 22.1662 35.9133 22.0772L36.7946 20.6885C36.9014 20.5283 36.9993 20.4482 37.0884 20.4482C37.1774 20.4482 37.2931 20.4927 37.4355 20.5817C38.0943 20.9734 38.8598 21.2938 39.7322 21.5431C40.6046 21.7745 41.4859 21.8903 42.376 21.8903C43.5867 21.8903 44.4947 21.6944 45.1 21.3027C45.7231 20.8933 46.0347 20.2434 46.0347 19.3533C46.0347 18.8191 45.919 18.3919 45.6875 18.0714C45.4561 17.7509 45.1178 17.475 44.6727 17.2435C44.2276 17.0121 43.5066 16.7005 42.5096 16.3088L41.8953 16.0685C40.7381 15.6056 39.7767 15.1605 39.0112 14.7332C38.2634 14.3059 37.6403 13.7451 37.1418 13.0508C36.6433 12.3564 36.394 11.5107 36.394 10.5137C36.394 8.89361 37.0082 7.64736 38.2367 6.77498C39.483 5.8848 41.112 5.43971 43.1238 5.43971C44.3522 5.43971 45.4116 5.55543 46.3017 5.78688C47.2097 6.01832 47.9931 6.3744 48.6518 6.8551C48.8655 7.01533 48.9723 7.16666 48.9723 7.30909C48.9723 7.41591 48.9367 7.51383 48.8655 7.60285L48.0109 8.99153C47.9041 9.15176 47.8151 9.23188 47.7438 9.23188C47.6726 9.23188 47.5569 9.17847 47.3967 9.07165C46.2572 8.3417 44.8418 7.97672 43.1505 7.97672C42.0289 7.97672 41.1832 8.18147 40.6135 8.59095C40.0438 9.00043 39.7589 9.65027 39.7589 10.5404C39.7589 11.0924 39.8746 11.5375 40.1061 11.8757C40.3553 12.1962 40.7114 12.4721 41.1743 12.7036C41.6372 12.935 42.3849 13.2466 43.4176 13.6383L44.0852 13.9053C45.3849 14.4216 46.3997 14.9023 47.1296 15.3474C47.8596 15.7747 48.4204 16.3177 48.8121 16.9765C49.2215 17.6174 49.4263 18.4453 49.4263 19.4601C49.4263 20.9912 48.8477 22.2018 47.6904 23.092C46.551 23.9644 44.922 24.4006 42.8033 24.4006ZM53.028 24C52.6719 24 52.4137 23.9199 52.2535 23.7597C52.1111 23.5994 52.0399 23.3591 52.0399 23.0386V6.82839C52.0399 6.49012 52.1111 6.24087 52.2535 6.08064C52.4137 5.9204 52.6719 5.84029 53.028 5.84029H54.4434C54.7994 5.84029 55.0576 5.9204 55.2178 6.08064C55.3781 6.24087 55.4582 6.49012 55.4582 6.82839V23.0386C55.4582 23.3591 55.3781 23.5994 55.2178 23.7597C55.0754 23.9199 54.8172 24 54.4434 24H53.028ZM59.6 24C59.2439 24 58.9858 23.9199 58.8256 23.7597C58.6831 23.5994 58.6119 23.3591 58.6119 23.0386V6.82839C58.6119 6.49012 58.6831 6.24087 58.8256 6.08064C58.9858 5.9204 59.2439 5.84029 59.6 5.84029H64.9411C67.9499 5.84029 70.2466 6.56134 71.8311 8.00343C73.4334 9.44553 74.2346 11.7511 74.2346 14.9201C74.2346 20.9734 71.1368 24 64.9411 24H59.6ZM65.1548 21.4096C67.0419 21.4096 68.4573 20.92 69.4009 19.9408C70.3623 18.9616 70.843 17.288 70.843 14.9201C70.843 12.5523 70.3623 10.8876 69.4009 9.92622C68.4573 8.94702 67.0419 8.45742 65.1548 8.45742H62.0302V21.4096H65.1548ZM77.8296 24C77.4736 24 77.2154 23.9199 77.0552 23.7597C76.9127 23.5994 76.8415 23.3591 76.8415 23.0386V6.82839C76.8415 6.49012 76.9127 6.24087 77.0552 6.08064C77.2154 5.9204 77.4736 5.84029 77.8296 5.84029H88.9391C89.2952 5.84029 89.5355 5.9115 89.6601 6.05393C89.8026 6.19636 89.8738 6.43671 89.8738 6.77498V7.49603C89.8738 7.8343 89.8026 8.08355 89.6601 8.24378C89.5355 8.38621 89.2952 8.45742 88.9391 8.45742H80.2598V13.6383H86.5623C86.9184 13.6383 87.1676 13.7095 87.3101 13.8519C87.4525 13.9944 87.5237 14.2347 87.5237 14.573V15.2406C87.5237 15.5789 87.4525 15.8281 87.3101 15.9884C87.1676 16.1308 86.9184 16.202 86.5623 16.202H80.2598V21.4096H88.9124C89.2685 21.4096 89.5177 21.4897 89.6601 21.6499C89.8026 21.7923 89.8738 22.0327 89.8738 22.371V23.092C89.8738 23.4125 89.8026 23.6439 89.6601 23.7864C89.5177 23.9288 89.2685 24 88.9124 24H77.8296Z"/>
</mask>
<path d="M42.8033 24.4006C41.5393 24.4006 40.293 24.2671 39.0646 24C37.8539 23.7151 36.8836 23.3235 36.1537 22.825C35.9222 22.6647 35.8065 22.5223 35.8065 22.3977C35.8065 22.273 35.8421 22.1662 35.9133 22.0772L36.7946 20.6885C36.9014 20.5283 36.9993 20.4482 37.0884 20.4482C37.1774 20.4482 37.2931 20.4927 37.4355 20.5817C38.0943 20.9734 38.8598 21.2938 39.7322 21.5431C40.6046 21.7745 41.4859 21.8903 42.376 21.8903C43.5867 21.8903 44.4947 21.6944 45.1 21.3027C45.7231 20.8933 46.0347 20.2434 46.0347 19.3533C46.0347 18.8191 45.919 18.3919 45.6875 18.0714C45.4561 17.7509 45.1178 17.475 44.6727 17.2435C44.2276 17.0121 43.5066 16.7005 42.5096 16.3088L41.8953 16.0685C40.7381 15.6056 39.7767 15.1605 39.0112 14.7332C38.2634 14.3059 37.6403 13.7451 37.1418 13.0508C36.6433 12.3564 36.394 11.5107 36.394 10.5137C36.394 8.89361 37.0082 7.64736 38.2367 6.77498C39.483 5.8848 41.112 5.43971 43.1238 5.43971C44.3522 5.43971 45.4116 5.55543 46.3017 5.78688C47.2097 6.01832 47.9931 6.3744 48.6518 6.8551C48.8655 7.01533 48.9723 7.16666 48.9723 7.30909C48.9723 7.41591 48.9367 7.51383 48.8655 7.60285L48.0109 8.99153C47.9041 9.15176 47.8151 9.23188 47.7438 9.23188C47.6726 9.23188 47.5569 9.17847 47.3967 9.07165C46.2572 8.3417 44.8418 7.97672 43.1505 7.97672C42.0289 7.97672 41.1832 8.18147 40.6135 8.59095C40.0438 9.00043 39.7589 9.65027 39.7589 10.5404C39.7589 11.0924 39.8746 11.5375 40.1061 11.8757C40.3553 12.1962 40.7114 12.4721 41.1743 12.7036C41.6372 12.935 42.3849 13.2466 43.4176 13.6383L44.0852 13.9053C45.3849 14.4216 46.3997 14.9023 47.1296 15.3474C47.8596 15.7747 48.4204 16.3177 48.8121 16.9765C49.2215 17.6174 49.4263 18.4453 49.4263 19.4601C49.4263 20.9912 48.8477 22.2018 47.6904 23.092C46.551 23.9644 44.922 24.4006 42.8033 24.4006ZM53.028 24C52.6719 24 52.4137 23.9199 52.2535 23.7597C52.1111 23.5994 52.0399 23.3591 52.0399 23.0386V6.82839C52.0399 6.49012 52.1111 6.24087 52.2535 6.08064C52.4137 5.9204 52.6719 5.84029 53.028 5.84029H54.4434C54.7994 5.84029 55.0576 5.9204 55.2178 6.08064C55.3781 6.24087 55.4582 6.49012 55.4582 6.82839V23.0386C55.4582 23.3591 55.3781 23.5994 55.2178 23.7597C55.0754 23.9199 54.8172 24 54.4434 24H53.028ZM59.6 24C59.2439 24 58.9858 23.9199 58.8256 23.7597C58.6831 23.5994 58.6119 23.3591 58.6119 23.0386V6.82839C58.6119 6.49012 58.6831 6.24087 58.8256 6.08064C58.9858 5.9204 59.2439 5.84029 59.6 5.84029H64.9411C67.9499 5.84029 70.2466 6.56134 71.8311 8.00343C73.4334 9.44553 74.2346 11.7511 74.2346 14.9201C74.2346 20.9734 71.1368 24 64.9411 24H59.6ZM65.1548 21.4096C67.0419 21.4096 68.4573 20.92 69.4009 19.9408C70.3623 18.9616 70.843 17.288 70.843 14.9201C70.843 12.5523 70.3623 10.8876 69.4009 9.92622C68.4573 8.94702 67.0419 8.45742 65.1548 8.45742H62.0302V21.4096H65.1548ZM77.8296 24C77.4736 24 77.2154 23.9199 77.0552 23.7597C76.9127 23.5994 76.8415 23.3591 76.8415 23.0386V6.82839C76.8415 6.49012 76.9127 6.24087 77.0552 6.08064C77.2154 5.9204 77.4736 5.84029 77.8296 5.84029H88.9391C89.2952 5.84029 89.5355 5.9115 89.6601 6.05393C89.8026 6.19636 89.8738 6.43671 89.8738 6.77498V7.49603C89.8738 7.8343 89.8026 8.08355 89.6601 8.24378C89.5355 8.38621 89.2952 8.45742 88.9391 8.45742H80.2598V13.6383H86.5623C86.9184 13.6383 87.1676 13.7095 87.3101 13.8519C87.4525 13.9944 87.5237 14.2347 87.5237 14.573V15.2406C87.5237 15.5789 87.4525 15.8281 87.3101 15.9884C87.1676 16.1308 86.9184 16.202 86.5623 16.202H80.2598V21.4096H88.9124C89.2685 21.4096 89.5177 21.4897 89.6601 21.6499C89.8026 21.7923 89.8738 22.0327 89.8738 22.371V23.092C89.8738 23.4125 89.8026 23.6439 89.6601 23.7864C89.5177 23.9288 89.2685 24 88.9124 24H77.8296Z" fill="white"/>
<path d="M39.0646 24L39.0089 24.2365L39.013 24.2374L39.0646 24ZM36.1537 22.825L36.0154 23.0247L36.0167 23.0256L36.1537 22.825ZM35.9133 22.0772L36.103 22.229L36.1113 22.2186L36.1184 22.2074L35.9133 22.0772ZM36.7946 20.6885L36.5924 20.5537L36.5895 20.5584L36.7946 20.6885ZM37.4355 20.5817L37.3068 20.7878L37.3114 20.7905L37.4355 20.5817ZM39.7322 21.5431L39.6655 21.7767L39.6699 21.7779L39.7322 21.5431ZM45.1 21.3027L45.232 21.5067L45.2334 21.5058L45.1 21.3027ZM45.6875 18.0714L45.8845 17.9292L45.6875 18.0714ZM44.6727 17.2435L44.7848 17.028L44.6727 17.2435ZM42.5096 16.3088L42.5984 16.0827L42.5981 16.0826L42.5096 16.3088ZM41.8953 16.0685L41.8051 16.294L41.8068 16.2947L41.8953 16.0685ZM39.0112 14.7332L38.8906 14.9441L38.8928 14.9453L39.0112 14.7332ZM37.1418 13.0508L36.9444 13.1924L37.1418 13.0508ZM38.2367 6.77498L38.3774 6.97304L38.3779 6.97265L38.2367 6.77498ZM46.3017 5.78688L46.2406 6.02199L46.2417 6.02227L46.3017 5.78688ZM48.6518 6.8551L48.7976 6.66074L48.795 6.65886L48.6518 6.8551ZM48.8655 7.60285L48.6758 7.45109L48.6664 7.46278L48.6586 7.47553L48.8655 7.60285ZM48.0109 8.99153L48.2132 9.12637L48.2178 9.11885L48.0109 8.99153ZM47.3967 9.07165L47.5314 8.86949L47.5277 8.8671L47.3967 9.07165ZM40.6135 8.59095L40.7553 8.78821L40.6135 8.59095ZM40.1061 11.8757L39.9056 12.0129L39.9098 12.019L39.9143 12.0249L40.1061 11.8757ZM41.1743 12.7036L41.0657 12.9209H41.0657L41.1743 12.7036ZM43.4176 13.6383L43.5078 13.4127L43.5037 13.4111L43.4176 13.6383ZM44.0852 13.9053L43.995 14.1309L43.9955 14.1311L44.0852 13.9053ZM47.1296 15.3474L47.0031 15.5549L47.0069 15.5571L47.1296 15.3474ZM48.8121 16.9765L48.6031 17.1007L48.6073 17.1073L48.8121 16.9765ZM47.6904 23.092L47.8381 23.2849L47.8385 23.2846L47.6904 23.092ZM42.8033 24.4006V24.1577C41.5565 24.1577 40.3276 24.026 39.1162 23.7626L39.0646 24L39.013 24.2374C40.2585 24.5081 41.522 24.6435 42.8033 24.6435V24.4006ZM39.0646 24L39.1202 23.7635C37.9277 23.4829 36.9881 23.1006 36.2907 22.6244L36.1537 22.825L36.0167 23.0256C36.7791 23.5463 37.7801 23.9473 39.0089 24.2365L39.0646 24ZM36.1537 22.825L36.2919 22.6252C36.1862 22.552 36.1197 22.4914 36.0818 22.4448C36.0431 22.3971 36.0494 22.3831 36.0494 22.3977H35.8065H35.5636C35.5636 22.5368 35.6278 22.6564 35.7048 22.7512C35.7826 22.847 35.8897 22.9377 36.0154 23.0247L36.1537 22.825ZM35.8065 22.3977H36.0494C36.0494 22.3227 36.0695 22.2708 36.103 22.229L35.9133 22.0772L35.7236 21.9255C35.6147 22.0616 35.5636 22.2234 35.5636 22.3977H35.8065ZM35.9133 22.0772L36.1184 22.2074L36.9997 20.8187L36.7946 20.6885L36.5895 20.5584L35.7082 21.947L35.9133 22.0772ZM36.7946 20.6885L36.9967 20.8233C37.043 20.7539 37.0787 20.7153 37.102 20.6963C37.1255 20.6771 37.1194 20.6911 37.0884 20.6911V20.4482V20.2052C36.9683 20.2052 36.8688 20.2594 36.7943 20.3202C36.7197 20.3813 36.653 20.4629 36.5925 20.5538L36.7946 20.6885ZM37.0884 20.4482V20.6911C37.1068 20.6911 37.174 20.7047 37.3068 20.7877L37.4355 20.5817L37.5643 20.3757C37.4122 20.2806 37.2479 20.2052 37.0884 20.2052V20.4482ZM37.4355 20.5817L37.3114 20.7905C37.991 21.1946 38.7765 21.5227 39.6655 21.7767L39.7322 21.5431L39.7989 21.3095C38.9431 21.065 38.1975 20.7521 37.5597 20.3729L37.4355 20.5817ZM39.7322 21.5431L39.6699 21.7779C40.5623 22.0147 41.4645 22.1332 42.376 22.1332V21.8903V21.6473C41.5072 21.6473 40.6468 21.5344 39.7945 21.3083L39.7322 21.5431ZM42.376 21.8903V22.1332C43.6051 22.1332 44.5688 21.9358 45.232 21.5067L45.1 21.3027L44.968 21.0988C44.4205 21.4531 43.5683 21.6473 42.376 21.6473V21.8903ZM45.1 21.3027L45.2334 21.5058C45.9389 21.0422 46.2776 20.3069 46.2776 19.3533H46.0347H45.7918C45.7918 20.1799 45.5074 20.7444 44.9666 21.0997L45.1 21.3027ZM46.0347 19.3533H46.2776C46.2776 18.7857 46.1547 18.3033 45.8845 17.9292L45.6875 18.0714L45.4906 18.2136C45.6832 18.4804 45.7918 18.8526 45.7918 19.3533H46.0347ZM45.6875 18.0714L45.8845 17.9292C45.6257 17.5708 45.2547 17.2723 44.7848 17.028L44.6727 17.2435L44.5606 17.459C44.9809 17.6776 45.2865 17.931 45.4906 18.2136L45.6875 18.0714ZM44.6727 17.2435L44.7848 17.028C44.3276 16.7903 43.5965 16.4749 42.5984 16.0827L42.5096 16.3088L42.4207 16.5349C43.4166 16.9262 44.1276 17.2339 44.5606 17.459L44.6727 17.2435ZM42.5096 16.3088L42.5981 16.0826L41.9839 15.8423L41.8953 16.0685L41.8068 16.2947L42.421 16.535L42.5096 16.3088ZM41.8953 16.0685L41.9856 15.8429C40.8343 15.3824 39.8831 14.9417 39.1295 14.5211L39.0112 14.7332L38.8928 14.9453C39.6703 15.3793 40.6419 15.8287 41.8051 16.294L41.8953 16.0685ZM39.0112 14.7332L39.1317 14.5223C38.414 14.1122 37.8171 13.5749 37.3391 12.9091L37.1418 13.0508L36.9444 13.1924C37.4634 13.9153 38.1128 14.4997 38.8906 14.9441L39.0112 14.7332ZM37.1418 13.0508L37.3391 12.9091C36.875 12.2626 36.6369 11.4686 36.6369 10.5137H36.394H36.1511C36.1511 11.5528 36.4116 12.4502 36.9444 13.1924L37.1418 13.0508ZM36.394 10.5137H36.6369C36.6369 8.96535 37.2185 7.79598 38.3774 6.97304L38.2367 6.77498L38.096 6.57692C36.798 7.49874 36.1511 8.82188 36.1511 10.5137H36.394ZM38.2367 6.77498L38.3779 6.97265C39.5718 6.1199 41.1469 5.68263 43.1238 5.68263V5.43971V5.19678C41.0771 5.19678 39.3942 5.64969 38.0955 6.5773L38.2367 6.77498ZM43.1238 5.43971V5.68263C44.3381 5.68263 45.3758 5.79713 46.2406 6.02198L46.3017 5.78688L46.3629 5.55177C45.4473 5.31373 44.3664 5.19678 43.1238 5.19678V5.43971ZM46.3017 5.78688L46.2417 6.02227C47.1242 6.24721 47.8783 6.59137 48.5086 7.05133L48.6518 6.8551L48.795 6.65886C48.1079 6.15742 47.2953 5.78944 46.3617 5.55148L46.3017 5.78688ZM48.6518 6.8551L48.5061 7.04944C48.7087 7.20142 48.7294 7.28936 48.7294 7.30909H48.9723H49.2152C49.2152 7.04396 49.0222 6.82923 48.7976 6.66076L48.6518 6.8551ZM48.9723 7.30909H48.7294C48.7294 7.3569 48.715 7.40204 48.6758 7.45109L48.8655 7.60285L49.0552 7.7546C49.1584 7.62562 49.2152 7.47492 49.2152 7.30909H48.9723ZM48.8655 7.60285L48.6586 7.47553L47.804 8.86422L48.0109 8.99153L48.2178 9.11885L49.0724 7.73016L48.8655 7.60285ZM48.0109 8.99153L47.8088 8.85678C47.7607 8.92891 47.7247 8.97038 47.7015 8.99123C47.6904 9.00123 47.6872 9.00198 47.6919 8.99958C47.6972 8.99697 47.7155 8.98896 47.7438 8.98896V9.23188V9.47481C47.8689 9.47481 47.9656 9.40717 48.0265 9.35236C48.0924 9.29309 48.1543 9.21438 48.213 9.12628L48.0109 8.99153ZM47.7438 9.23188V8.98896C47.7611 8.98896 47.7527 8.99308 47.7054 8.97126C47.6632 8.95177 47.6058 8.91909 47.5314 8.86952L47.3967 9.07165L47.2619 9.27377C47.3478 9.33103 47.4283 9.37846 47.5018 9.41239C47.5703 9.44398 47.6554 9.47481 47.7438 9.47481V9.23188ZM47.3967 9.07165L47.5277 8.8671C46.3404 8.1065 44.8767 7.7338 43.1505 7.7338V7.97672V8.21965C44.807 8.21965 46.174 8.5769 47.2656 9.2762L47.3967 9.07165ZM43.1505 7.97672V7.7338C42.0061 7.7338 41.1008 7.94151 40.4717 8.39369L40.6135 8.59095L40.7553 8.78821C41.2656 8.42142 42.0517 8.21965 43.1505 8.21965V7.97672ZM40.6135 8.59095L40.4717 8.39369C39.8216 8.86093 39.516 9.59544 39.516 10.5404H39.7589H40.0018C40.0018 9.70509 40.2659 9.13993 40.7553 8.78821L40.6135 8.59095ZM39.7589 10.5404H39.516C39.516 11.1247 39.6384 11.6224 39.9056 12.0129L40.1061 11.8757L40.3066 11.7385C40.1109 11.4525 40.0018 11.06 40.0018 10.5404H39.7589ZM40.1061 11.8757L39.9143 12.0249C40.1911 12.3807 40.5789 12.6775 41.0657 12.9209L41.1743 12.7036L41.2829 12.4863C40.8439 12.2668 40.5196 12.0117 40.2978 11.7266L40.1061 11.8757ZM41.1743 12.7036L41.0657 12.9209C41.5402 13.1582 42.2977 13.4733 43.3314 13.8654L43.4176 13.6383L43.5037 13.4111C42.4722 13.0199 41.7342 12.7119 41.2829 12.4863L41.1743 12.7036ZM43.4176 13.6383L43.3273 13.8638L43.995 14.1309L44.0852 13.9053L44.1754 13.6798L43.5078 13.4127L43.4176 13.6383ZM44.0852 13.9053L43.9955 14.1311C45.2893 14.6451 46.2899 15.1199 47.0031 15.5548L47.1296 15.3474L47.2561 15.14C46.5094 14.6847 45.4804 14.1982 44.1749 13.6796L44.0852 13.9053ZM47.1296 15.3474L47.0069 15.5571C47.7051 15.9658 48.2347 16.4808 48.6033 17.1006L48.8121 16.9765L49.0209 16.8523C48.6061 16.1547 48.014 15.5836 47.2523 15.1378L47.1296 15.3474ZM48.8121 16.9765L48.6073 17.1073C48.9848 17.6981 49.1834 18.4765 49.1834 19.4601H49.4263H49.6692C49.6692 18.414 49.4583 17.5367 49.0168 16.8457L48.8121 16.9765ZM49.4263 19.4601H49.1834C49.1834 20.92 48.6365 22.0578 47.5423 22.8995L47.6904 23.092L47.8385 23.2846C49.0589 22.3458 49.6692 21.0623 49.6692 19.4601H49.4263ZM47.6904 23.092L47.5428 22.8991C46.4617 23.7268 44.893 24.1577 42.8033 24.1577V24.4006V24.6435C44.951 24.6435 46.6403 24.202 47.8381 23.2849L47.6904 23.092ZM52.2535 23.7597L52.072 23.921L52.0767 23.9264L52.0817 23.9314L52.2535 23.7597ZM52.2535 6.08064L52.0817 5.90886L52.0767 5.91391L52.072 5.91925L52.2535 6.08064ZM55.2178 6.08064L55.046 6.25241V6.25241L55.2178 6.08064ZM55.2178 23.7597L55.046 23.5879L55.041 23.5929L55.0363 23.5983L55.2178 23.7597ZM53.028 24V23.7571C52.7006 23.7571 52.5198 23.6824 52.4253 23.5879L52.2535 23.7597L52.0817 23.9314C52.3077 24.1574 52.6432 24.2429 53.028 24.2429V24ZM52.2535 23.7597L52.4351 23.5983C52.3478 23.5 52.2828 23.3282 52.2828 23.0386H52.0399H51.7969C51.7969 23.3899 51.8744 23.6988 52.072 23.921L52.2535 23.7597ZM52.0399 23.0386H52.2828V6.82839H52.0399H51.7969V23.0386H52.0399ZM52.0399 6.82839H52.2828C52.2828 6.5169 52.3495 6.33826 52.4351 6.24203L52.2535 6.08064L52.072 5.91925C51.8726 6.14348 51.7969 6.46334 51.7969 6.82839H52.0399ZM52.2535 6.08064L52.4253 6.25241C52.5198 6.15794 52.7006 6.08321 53.028 6.08321V5.84029V5.59736C52.6432 5.59736 52.3077 5.68287 52.0817 5.90886L52.2535 6.08064ZM53.028 5.84029V6.08321H54.4434V5.84029V5.59736H53.028V5.84029ZM54.4434 5.84029V6.08321C54.7707 6.08321 54.9516 6.15794 55.046 6.25241L55.2178 6.08064L55.3896 5.90886C55.1636 5.68287 54.8282 5.59736 54.4434 5.59736V5.84029ZM55.2178 6.08064L55.046 6.25241C55.1425 6.34885 55.2152 6.52311 55.2152 6.82839H55.4582H55.7011C55.7011 6.45713 55.6136 6.13289 55.3896 5.90886L55.2178 6.08064ZM55.4582 6.82839H55.2152V23.0386H55.4582H55.7011V6.82839H55.4582ZM55.4582 23.0386H55.2152C55.2152 23.3216 55.1447 23.4893 55.046 23.5879L55.2178 23.7597L55.3896 23.9314C55.6115 23.7096 55.7011 23.3965 55.7011 23.0386H55.4582ZM55.2178 23.7597L55.0363 23.5983C54.9646 23.6789 54.7966 23.7571 54.4434 23.7571V24V24.2429C54.8379 24.2429 55.1862 24.1609 55.3994 23.921L55.2178 23.7597ZM54.4434 24V23.7571H53.028V24V24.2429H54.4434V24ZM58.8256 23.7597L58.644 23.921L58.6487 23.9264L58.6538 23.9314L58.8256 23.7597ZM58.8256 6.08064L58.6538 5.90886L58.6487 5.91391L58.644 5.91925L58.8256 6.08064ZM71.8311 8.00343L71.6676 8.18309L71.6686 8.18399L71.8311 8.00343ZM69.4009 19.9408L69.2276 19.7706L69.226 19.7722L69.4009 19.9408ZM69.4009 9.92622L69.226 10.0948L69.2291 10.098L69.4009 9.92622ZM62.0302 8.45742V8.2145H61.7873V8.45742H62.0302ZM62.0302 21.4096H61.7873V21.6525H62.0302V21.4096ZM59.6 24V23.7571C59.2727 23.7571 59.0918 23.6824 58.9973 23.5879L58.8256 23.7597L58.6538 23.9314C58.8798 24.1574 59.2152 24.2429 59.6 24.2429V24ZM58.8256 23.7597L59.0071 23.5983C58.9198 23.5 58.8548 23.3282 58.8548 23.0386H58.6119H58.369C58.369 23.3899 58.4464 23.6988 58.644 23.921L58.8256 23.7597ZM58.6119 23.0386H58.8548V6.82839H58.6119H58.369V23.0386H58.6119ZM58.6119 6.82839H58.8548C58.8548 6.5169 58.9216 6.33826 59.0071 6.24203L58.8256 6.08064L58.644 5.91925C58.4447 6.14348 58.369 6.46334 58.369 6.82839H58.6119ZM58.8256 6.08064L58.9973 6.25241C59.0918 6.15794 59.2727 6.08321 59.6 6.08321V5.84029V5.59736C59.2152 5.59736 58.8798 5.68287 58.6538 5.90886L58.8256 6.08064ZM59.6 5.84029V6.08321H64.9411V5.84029V5.59736H59.6V5.84029ZM64.9411 5.84029V6.08321C67.9139 6.08321 70.1431 6.7956 71.6676 8.18309L71.8311 8.00343L71.9946 7.82377C70.3501 6.32707 67.986 5.59736 64.9411 5.59736V5.84029ZM71.8311 8.00343L71.6686 8.18399C73.1996 9.56189 73.9917 11.7872 73.9917 14.9201H74.2346H74.4775C74.4775 11.715 73.6673 9.32916 71.9936 7.82287L71.8311 8.00343ZM74.2346 14.9201H73.9917C73.9917 17.9079 73.2275 20.1044 71.7415 21.5563C70.2544 23.0092 68.0029 23.7571 64.9411 23.7571V24V24.2429C68.075 24.2429 70.4703 23.4775 72.081 21.9038C73.6928 20.3291 74.4775 17.9857 74.4775 14.9201H74.2346ZM64.9411 24V23.7571H59.6V24V24.2429H64.9411V24ZM65.1548 21.4096V21.6525C67.0817 21.6525 68.571 21.1521 69.5758 20.1093L69.4009 19.9408L69.226 19.7722C68.3437 20.6879 67.0022 21.1666 65.1548 21.1666V21.4096ZM69.4009 19.9408L69.5743 20.111C70.6033 19.0629 71.0859 17.3088 71.0859 14.9201H70.843H70.6001C70.6001 17.2673 70.1214 18.8602 69.2276 19.7706L69.4009 19.9408ZM70.843 14.9201H71.0859C71.0859 12.5321 70.6035 10.7853 69.5727 9.75445L69.4009 9.92622L69.2291 10.098C70.1211 10.99 70.6001 12.5724 70.6001 14.9201H70.843ZM69.4009 9.92622L69.5758 9.75766C68.571 8.7149 67.0817 8.2145 65.1548 8.2145V8.45742V8.70035C67.0022 8.70035 68.3437 9.17914 69.226 10.0948L69.4009 9.92622ZM65.1548 8.45742V8.2145H62.0302V8.45742V8.70035H65.1548V8.45742ZM62.0302 8.45742H61.7873V21.4096H62.0302H62.2731V8.45742H62.0302ZM62.0302 21.4096V21.6525H65.1548V21.4096V21.1666H62.0302V21.4096ZM77.0552 23.7597L76.8736 23.921L76.8783 23.9264L76.8834 23.9314L77.0552 23.7597ZM77.0552 6.08064L76.8834 5.90886L76.8783 5.91391L76.8736 5.91925L77.0552 6.08064ZM89.6601 6.05393L89.4773 6.2139L89.4827 6.21999L89.4884 6.2257L89.6601 6.05393ZM89.6601 8.24378L89.4786 8.08238L89.4773 8.08381L89.6601 8.24378ZM80.2598 8.45742V8.2145H80.0169V8.45742H80.2598ZM80.2598 13.6383H80.0169V13.8812H80.2598V13.6383ZM87.3101 13.8519L87.4818 13.6802L87.3101 13.8519ZM87.3101 15.9884L87.4818 16.1601L87.4869 16.1551L87.4916 16.1498L87.3101 15.9884ZM80.2598 16.202V15.9591H80.0169V16.202H80.2598ZM80.2598 21.4096H80.0169V21.6525H80.2598V21.4096ZM89.6601 21.6499L89.4786 21.8113L89.4833 21.8166L89.4884 21.8217L89.6601 21.6499ZM77.8296 24V23.7571C77.5023 23.7571 77.3214 23.6824 77.2269 23.5879L77.0552 23.7597L76.8834 23.9314C77.1094 24.1574 77.4448 24.2429 77.8296 24.2429V24ZM77.0552 23.7597L77.2367 23.5983C77.1494 23.5 77.0844 23.3282 77.0844 23.0386H76.8415H76.5986C76.5986 23.3899 76.676 23.6988 76.8736 23.921L77.0552 23.7597ZM76.8415 23.0386H77.0844V6.82839H76.8415H76.5986V23.0386H76.8415ZM76.8415 6.82839H77.0844C77.0844 6.5169 77.1512 6.33826 77.2367 6.24203L77.0552 6.08064L76.8736 5.91925C76.6743 6.14348 76.5986 6.46334 76.5986 6.82839H76.8415ZM77.0552 6.08064L77.2269 6.25241C77.3214 6.15794 77.5023 6.08321 77.8296 6.08321V5.84029V5.59736C77.4448 5.59736 77.1094 5.68287 76.8834 5.90886L77.0552 6.08064ZM77.8296 5.84029V6.08321H88.9391V5.84029V5.59736H77.8296V5.84029ZM88.9391 5.84029V6.08321C89.2815 6.08321 89.4261 6.15539 89.4773 6.2139L89.6601 6.05393L89.843 5.89396C89.6449 5.66762 89.3089 5.59736 88.9391 5.59736V5.84029ZM89.6601 6.05393L89.4884 6.2257C89.5626 6.29996 89.6309 6.45989 89.6309 6.77498H89.8738H90.1167C90.1167 6.41353 90.0425 6.09276 89.8319 5.88216L89.6601 6.05393ZM89.8738 6.77498H89.6309V7.49603H89.8738H90.1167V6.77498H89.8738ZM89.8738 7.49603H89.6309C89.6309 7.80752 89.5641 7.98616 89.4786 8.08239L89.6601 8.24378L89.8417 8.40517C90.041 8.18094 90.1167 7.86107 90.1167 7.49603H89.8738ZM89.6601 8.24378L89.4773 8.08381C89.4261 8.14232 89.2815 8.2145 88.9391 8.2145V8.45742V8.70035C89.3089 8.70035 89.6449 8.63009 89.843 8.40375L89.6601 8.24378ZM88.9391 8.45742V8.2145H80.2598V8.45742V8.70035H88.9391V8.45742ZM80.2598 8.45742H80.0169V13.6383H80.2598H80.5027V8.45742H80.2598ZM80.2598 13.6383V13.8812H86.5623V13.6383V13.3954H80.2598V13.6383ZM86.5623 13.6383V13.8812C86.8995 13.8812 87.0658 13.9512 87.1383 14.0237L87.3101 13.8519L87.4818 13.6802C87.2695 13.4678 86.9373 13.3954 86.5623 13.3954V13.6383ZM87.3101 13.8519L87.1383 14.0237C87.2125 14.098 87.2808 14.2579 87.2808 14.573H87.5237H87.7666C87.7666 14.2115 87.6924 13.8908 87.4818 13.6802L87.3101 13.8519ZM87.5237 14.573H87.2808V15.2406H87.5237H87.7666V14.573H87.5237ZM87.5237 15.2406H87.2808C87.2808 15.5521 87.214 15.7307 87.1285 15.827L87.3101 15.9884L87.4916 16.1498C87.6909 15.9255 87.7666 15.6057 87.7666 15.2406H87.5237ZM87.3101 15.9884L87.1383 15.8166C87.0658 15.8891 86.8995 15.9591 86.5623 15.9591V16.202V16.4449C86.9373 16.4449 87.2695 16.3725 87.4818 16.1601L87.3101 15.9884ZM86.5623 16.202V15.9591H80.2598V16.202V16.4449H86.5623V16.202ZM80.2598 16.202H80.0169V21.4096H80.2598H80.5027V16.202H80.2598ZM80.2598 21.4096V21.6525H88.9124V21.4096V21.1666H80.2598V21.4096ZM88.9124 21.4096V21.6525C89.2433 21.6525 89.4052 21.7287 89.4786 21.8113L89.6601 21.6499L89.8417 21.4885C89.6303 21.2507 89.2936 21.1666 88.9124 21.1666V21.4096ZM89.6601 21.6499L89.4884 21.8217C89.5626 21.8959 89.6309 22.0559 89.6309 22.371H89.8738H90.1167C90.1167 22.0095 90.0425 21.6888 89.8319 21.4781L89.6601 21.6499ZM89.8738 22.371H89.6309V23.092H89.8738H90.1167V22.371H89.8738ZM89.8738 23.092H89.6309C89.6309 23.3848 89.5646 23.5384 89.4884 23.6146L89.6601 23.7864L89.8319 23.9581C90.0406 23.7495 90.1167 23.4402 90.1167 23.092H89.8738ZM89.6601 23.7864L89.4884 23.6146C89.4159 23.6871 89.2496 23.7571 88.9124 23.7571V24V24.2429C89.2873 24.2429 89.6195 24.1705 89.8319 23.9581L89.6601 23.7864ZM88.9124 24V23.7571H77.8296V24V24.2429H88.9124V24Z" fill="white" mask="url(#path-4-outside-1_501_116)"/>
<path d="M37.5041 41.0488C37.2549 41.0488 37.0743 40.9928 36.9621 40.8806C36.8624 40.7685 36.8126 40.6003 36.8126 40.376V29.0318C36.8126 28.7951 36.8624 28.6207 36.9621 28.5085C37.0743 28.3964 37.2549 28.3403 37.5041 28.3403H38.4946C38.7438 28.3403 38.9245 28.3964 39.0366 28.5085C39.1487 28.6207 39.2048 28.7951 39.2048 29.0318V33.7414H45.3348V29.0318C45.3348 28.7951 45.3908 28.6207 45.503 28.5085C45.6151 28.3964 45.7958 28.3403 46.0449 28.3403H47.0168C47.266 28.3403 47.4466 28.3964 47.5588 28.5085C47.6709 28.6207 47.727 28.7951 47.727 29.0318V40.376C47.727 40.6003 47.6709 40.7685 47.5588 40.8806C47.4591 40.9928 47.2784 41.0488 47.0168 41.0488H46.0449C45.7958 41.0488 45.6151 40.9928 45.503 40.8806C45.3908 40.7685 45.3348 40.6003 45.3348 40.376V35.5543H39.2048V40.376C39.2048 40.6003 39.1487 40.7685 39.0366 40.8806C38.9369 40.9928 38.7563 41.0488 38.4946 41.0488H37.5041ZM55.523 41.3292C54.4017 41.3292 53.4112 41.1423 52.5515 40.7685C51.6918 40.3823 51.0252 39.8278 50.5518 39.1052C50.0783 38.3825 49.8416 37.5353 49.8416 36.5635V29.0318C49.8416 28.7951 49.8914 28.6207 49.9911 28.5085C50.1032 28.3964 50.2839 28.3403 50.5331 28.3403H51.5236C51.7728 28.3403 51.9534 28.3964 52.0656 28.5085C52.1777 28.6207 52.2338 28.7951 52.2338 29.0318V36.6195C52.2338 37.5914 52.5141 38.3265 53.0748 38.8248C53.6479 39.3232 54.464 39.5724 55.523 39.5724C56.5696 39.5724 57.3732 39.3232 57.9339 38.8248C58.507 38.3265 58.7936 37.5914 58.7936 36.6195V29.0318C58.7936 28.7951 58.8497 28.6207 58.9618 28.5085C59.0739 28.3964 59.2546 28.3403 59.5038 28.3403H60.4756C60.9615 28.3403 61.2045 28.5708 61.2045 29.0318V36.5635C61.2045 37.5353 60.9615 38.3825 60.4756 39.1052C60.0021 39.8154 59.3356 40.3636 58.4759 40.7498C57.6162 41.136 56.6319 41.3292 55.523 41.3292ZM64.0044 41.0488C63.7553 41.0488 63.5746 40.9928 63.4625 40.8806C63.3628 40.7685 63.313 40.6003 63.313 40.376V29.0318C63.313 28.7951 63.3628 28.6207 63.4625 28.5085C63.5746 28.3964 63.7615 28.3403 64.0231 28.3403H64.8828C65.0573 28.3403 65.1943 28.3653 65.294 28.4151C65.3937 28.4649 65.4933 28.5646 65.593 28.7141L71.7604 37.2737V29.0318C71.7604 28.7951 71.8102 28.6207 71.9099 28.5085C72.022 28.3964 72.2027 28.3403 72.4518 28.3403H73.4424C73.6915 28.3403 73.8722 28.3964 73.9843 28.5085C74.0965 28.6207 74.1525 28.7951 74.1525 29.0318V40.376C74.1525 40.6003 74.0965 40.7685 73.9843 40.8806C73.8847 40.9928 73.704 41.0488 73.4424 41.0488H72.564C72.3896 41.0488 72.2587 41.0301 72.1715 40.9928C72.0843 40.9429 71.9846 40.8432 71.8725 40.6937L65.7051 32.1529V40.376C65.7051 40.6003 65.6491 40.7685 65.5369 40.8806C65.4373 40.9928 65.2566 41.0488 64.995 41.0488H64.0044ZM80.2497 41.0488C80.0005 41.0488 79.8198 40.9928 79.7077 40.8806C79.5956 40.7685 79.5395 40.6003 79.5395 40.376V30.1719H76.2689C76.0197 30.1719 75.8453 30.122 75.7456 30.0223C75.6584 29.9227 75.6148 29.7545 75.6148 29.5177V29.0131C75.6148 28.7764 75.6584 28.6082 75.7456 28.5085C75.8453 28.3964 76.0197 28.3403 76.2689 28.3403H85.2022C85.4514 28.3403 85.6259 28.3964 85.7255 28.5085C85.8252 28.6082 85.875 28.7764 85.875 29.0131V29.5177C85.875 29.7545 85.8252 29.9227 85.7255 30.0223C85.6259 30.122 85.4514 30.1719 85.2022 30.1719H81.9317V40.376C81.9317 40.6003 81.8756 40.7685 81.7635 40.8806C81.6638 40.9928 81.4831 41.0488 81.2215 41.0488H80.2497Z" fill="white"/>
<path d="M40.3552 45.3672H40.5497C40.6172 45.3672 40.6713 45.3592 40.7122 45.3432C40.753 45.3254 40.7903 45.2961 40.8241 45.2553L42.0948 43.8167C42.1303 43.7705 42.1676 43.7385 42.2067 43.7208C42.2458 43.703 42.2937 43.6941 42.3506 43.6941H42.7875L41.3329 45.3379C41.2974 45.3805 41.2628 45.416 41.229 45.4444C41.197 45.4711 41.1624 45.4933 41.1251 45.511C41.1731 45.527 41.2166 45.551 41.2556 45.5829C41.2947 45.6131 41.3329 45.6531 41.3702 45.7028L42.8887 47.5117H42.4411C42.4074 47.5117 42.3781 47.5099 42.3532 47.5064C42.3301 47.5011 42.3097 47.494 42.292 47.4851C42.2742 47.4744 42.2582 47.4629 42.244 47.4504C42.2316 47.4362 42.2191 47.4203 42.2067 47.4025L40.8907 45.8866C40.8552 45.8422 40.817 45.8112 40.7761 45.7934C40.7353 45.7739 40.6731 45.7641 40.5896 45.7641H40.3552V47.5117H39.841V43.6941H40.3552V45.3672ZM44.8602 45.868C44.8602 45.7579 44.8442 45.6575 44.8123 45.567C44.7821 45.4746 44.7368 45.3956 44.6764 45.3299C44.6178 45.2624 44.5459 45.2109 44.4606 45.1753C44.3754 45.1381 44.2786 45.1194 44.1702 45.1194C43.9429 45.1194 43.7626 45.186 43.6294 45.3192C43.498 45.4506 43.4163 45.6336 43.3843 45.868H44.8602ZM45.2439 47.1334C45.1852 47.2045 45.1151 47.2666 45.0334 47.3199C44.9517 47.3714 44.8638 47.414 44.7697 47.4478C44.6773 47.4815 44.5814 47.5064 44.4819 47.5224C44.3825 47.5401 44.2839 47.549 44.1862 47.549C43.9997 47.549 43.8275 47.5179 43.6694 47.4558C43.5131 47.3918 43.3772 47.2995 43.2618 47.1787C43.1481 47.0562 43.0593 46.9052 42.9954 46.7258C42.9315 46.5464 42.8995 46.3404 42.8995 46.1078C42.8995 45.9195 42.9279 45.7437 42.9847 45.5803C43.0433 45.4169 43.1268 45.2757 43.2352 45.1567C43.3435 45.0359 43.4758 44.9418 43.6321 44.8743C43.7884 44.805 43.9642 44.7704 44.1596 44.7704C44.3212 44.7704 44.4704 44.7979 44.6071 44.853C44.7457 44.9063 44.8647 44.9844 44.9641 45.0874C45.0654 45.1887 45.1444 45.3148 45.2012 45.4657C45.2581 45.6149 45.2865 45.7854 45.2865 45.9772C45.2865 46.0518 45.2785 46.1015 45.2625 46.1264C45.2465 46.1513 45.2163 46.1637 45.1719 46.1637H43.3684C43.3737 46.3342 43.3968 46.4825 43.4376 46.6086C43.4803 46.7347 43.5389 46.8404 43.6135 46.9256C43.688 47.0091 43.7769 47.0722 43.8799 47.1148C43.9829 47.1556 44.0983 47.176 44.2262 47.176C44.3452 47.176 44.4473 47.1627 44.5326 47.1361C44.6196 47.1077 44.6942 47.0775 44.7563 47.0455C44.8185 47.0135 44.87 46.9842 44.9108 46.9576C44.9535 46.9292 44.9899 46.915 45.0201 46.915C45.0591 46.915 45.0893 46.9301 45.1107 46.9603L45.2439 47.1334ZM46.3458 46.8617C46.4328 46.9789 46.5279 47.0615 46.6309 47.1094C46.7357 47.1574 46.8502 47.1814 46.9745 47.1814C47.2285 47.1814 47.423 47.0917 47.558 46.9123C47.6929 46.7329 47.7604 46.4656 47.7604 46.1104C47.7604 45.7801 47.7 45.5377 47.5793 45.3831C47.4603 45.2269 47.2898 45.1487 47.0678 45.1487C46.9133 45.1487 46.7783 45.1842 46.6628 45.2553C46.5492 45.3263 46.4435 45.4267 46.3458 45.5563V46.8617ZM46.3458 45.202C46.4595 45.0706 46.5874 44.9658 46.7294 44.8876C46.8733 44.8095 47.0385 44.7704 47.2249 44.7704C47.383 44.7704 47.5251 44.8006 47.6512 44.861C47.7791 44.9214 47.8874 45.0093 47.9762 45.1247C48.065 45.2384 48.1325 45.3769 48.1787 45.5403C48.2266 45.7037 48.2506 45.8875 48.2506 46.0918C48.2506 46.3102 48.224 46.5091 48.1707 46.6885C48.1174 46.8679 48.0401 47.0215 47.9389 47.1494C47.8395 47.2755 47.7178 47.3741 47.5739 47.4451C47.4301 47.5144 47.2685 47.549 47.0891 47.549C46.9115 47.549 46.7614 47.5162 46.6389 47.4504C46.5181 47.383 46.4124 47.2879 46.3218 47.1654L46.2979 47.4105C46.2837 47.478 46.2428 47.5117 46.1753 47.5117H45.8689V43.5876H46.3458V45.202ZM50.6566 45.868C50.6566 45.7579 50.6406 45.6575 50.6087 45.567C50.5785 45.4746 50.5332 45.3956 50.4728 45.3299C50.4142 45.2624 50.3423 45.2109 50.257 45.1753C50.1718 45.1381 50.075 45.1194 49.9666 45.1194C49.7393 45.1194 49.559 45.186 49.4258 45.3192C49.2944 45.4506 49.2127 45.6336 49.1807 45.868H50.6566ZM51.0402 47.1334C50.9816 47.2045 50.9115 47.2666 50.8298 47.3199C50.7481 47.3714 50.6602 47.414 50.566 47.4478C50.4737 47.4815 50.3778 47.5064 50.2783 47.5224C50.1789 47.5401 50.0803 47.549 49.9826 47.549C49.7961 47.549 49.6239 47.5179 49.4658 47.4558C49.3095 47.3918 49.1736 47.2995 49.0582 47.1787C48.9445 47.0562 48.8557 46.9052 48.7918 46.7258C48.7278 46.5464 48.6959 46.3404 48.6959 46.1078C48.6959 45.9195 48.7243 45.7437 48.7811 45.5803C48.8397 45.4169 48.9232 45.2757 49.0315 45.1567C49.1399 45.0359 49.2722 44.9418 49.4285 44.8743C49.5848 44.805 49.7606 44.7704 49.956 44.7704C50.1176 44.7704 50.2668 44.7979 50.4035 44.853C50.5421 44.9063 50.6611 44.9844 50.7605 45.0874C50.8618 45.1887 50.9408 45.3148 50.9976 45.4657C51.0544 45.6149 51.0829 45.7854 51.0829 45.9772C51.0829 46.0518 51.0749 46.1015 51.0589 46.1264C51.0429 46.1513 51.0127 46.1637 50.9683 46.1637H49.1648C49.1701 46.3342 49.1932 46.4825 49.234 46.6086C49.2766 46.7347 49.3352 46.8404 49.4098 46.9256C49.4844 47.0091 49.5732 47.0722 49.6762 47.1148C49.7793 47.1556 49.8947 47.176 50.0226 47.176C50.1416 47.176 50.2437 47.1627 50.3289 47.1361C50.416 47.1077 50.4906 47.0775 50.5527 47.0455C50.6149 47.0135 50.6664 46.9842 50.7072 46.9576C50.7499 46.9292 50.7863 46.915 50.8165 46.915C50.8555 46.915 50.8857 46.9301 50.907 46.9603L51.0402 47.1334ZM52.1422 46.8617C52.2292 46.9789 52.3242 47.0615 52.4273 47.1094C52.532 47.1574 52.6466 47.1814 52.7709 47.1814C53.0249 47.1814 53.2194 47.0917 53.3543 46.9123C53.4893 46.7329 53.5568 46.4656 53.5568 46.1104C53.5568 45.7801 53.4964 45.5377 53.3757 45.3831C53.2567 45.2269 53.0862 45.1487 52.8642 45.1487C52.7096 45.1487 52.5747 45.1842 52.4592 45.2553C52.3456 45.3263 52.2399 45.4267 52.1422 45.5563V46.8617ZM52.1422 45.202C52.2559 45.0706 52.3837 44.9658 52.5258 44.8876C52.6697 44.8095 52.8349 44.7704 53.0213 44.7704C53.1794 44.7704 53.3215 44.8006 53.4476 44.861C53.5755 44.9214 53.6838 45.0093 53.7726 45.1247C53.8614 45.2384 53.9289 45.3769 53.9751 45.5403C54.023 45.7037 54.047 45.8875 54.047 46.0918C54.047 46.3102 54.0204 46.5091 53.9671 46.6885C53.9138 46.8679 53.8365 47.0215 53.7353 47.1494C53.6358 47.2755 53.5142 47.3741 53.3703 47.4451C53.2265 47.5144 53.0648 47.549 52.8855 47.549C52.7079 47.549 52.5578 47.5162 52.4352 47.4504C52.3145 47.383 52.2088 47.2879 52.1182 47.1654L52.0942 47.4105C52.08 47.478 52.0392 47.5117 51.9717 47.5117H51.6653V43.5876H52.1422V45.202ZM56.1093 46.2969C55.8909 46.304 55.7044 46.3218 55.5499 46.3502C55.3972 46.3768 55.2719 46.4124 55.1743 46.4568C55.0784 46.5012 55.0082 46.5535 54.9638 46.6139C54.9212 46.6743 54.8999 46.7418 54.8999 46.8164C54.8999 46.8874 54.9114 46.9487 54.9345 47.0002C54.9576 47.0517 54.9887 47.0944 55.0277 47.1281C55.0686 47.1601 55.1157 47.184 55.1689 47.2C55.224 47.2142 55.2826 47.2213 55.3448 47.2213C55.4282 47.2213 55.5046 47.2133 55.5739 47.1974C55.6431 47.1796 55.708 47.1547 55.7683 47.1228C55.8305 47.0908 55.8891 47.0526 55.9442 47.0082C56.001 46.9638 56.0561 46.9132 56.1093 46.8564V46.2969ZM54.5775 45.194C54.7267 45.0501 54.8874 44.9427 55.0597 44.8716C55.232 44.8006 55.4229 44.7651 55.6325 44.7651C55.7834 44.7651 55.9175 44.7899 56.0348 44.8397C56.152 44.8894 56.2505 44.9587 56.3305 45.0475C56.4104 45.1363 56.4708 45.2437 56.5116 45.3698C56.5525 45.4959 56.5729 45.6345 56.5729 45.7854V47.5117H56.3624C56.3163 47.5117 56.2807 47.5046 56.2559 47.4904C56.231 47.4744 56.2115 47.4442 56.1973 47.3998L56.144 47.1441C56.0729 47.2098 56.0037 47.2684 55.9362 47.3199C55.8687 47.3696 55.7977 47.4123 55.7231 47.4478C55.6485 47.4815 55.5685 47.5073 55.4833 47.525C55.3998 47.5446 55.3066 47.5543 55.2036 47.5543C55.0988 47.5543 55.0002 47.5401 54.9079 47.5117C54.8155 47.4815 54.7347 47.4371 54.6654 47.3785C54.5979 47.3199 54.5438 47.2462 54.5029 47.1574C54.4639 47.0668 54.4443 46.9603 54.4443 46.8377C54.4443 46.7312 54.4736 46.629 54.5322 46.5313C54.5908 46.4319 54.6859 46.344 54.8173 46.2676C54.9487 46.1912 55.1201 46.1291 55.3314 46.0811C55.5428 46.0314 55.8021 46.003 56.1093 45.9959V45.7854C56.1093 45.5758 56.0641 45.4178 55.9735 45.3112C55.8829 45.2029 55.7506 45.1487 55.5765 45.1487C55.4593 45.1487 55.3607 45.1638 55.2808 45.194C55.2027 45.2224 55.1343 45.2553 55.0757 45.2926C55.0189 45.3281 54.9691 45.3609 54.9265 45.3911C54.8857 45.4196 54.8448 45.4338 54.804 45.4338C54.772 45.4338 54.7445 45.4258 54.7214 45.4098C54.6983 45.392 54.6788 45.3707 54.6628 45.3458L54.5775 45.194ZM58.867 45.2579C58.8457 45.297 58.8128 45.3165 58.7684 45.3165C58.7418 45.3165 58.7116 45.3068 58.6779 45.2872C58.6441 45.2677 58.6024 45.2464 58.5527 45.2233C58.5047 45.1984 58.447 45.1762 58.3795 45.1567C58.312 45.1354 58.2321 45.1247 58.1397 45.1247C58.0598 45.1247 57.9879 45.1354 57.9239 45.1567C57.86 45.1762 57.8049 45.2038 57.7588 45.2393C57.7144 45.2748 57.6797 45.3165 57.6549 45.3645C57.6318 45.4107 57.6202 45.4613 57.6202 45.5163C57.6202 45.5856 57.6398 45.6433 57.6788 45.6895C57.7197 45.7357 57.773 45.7756 57.8387 45.8094C57.9044 45.8431 57.979 45.8733 58.0625 45.9C58.1459 45.9248 58.2312 45.9524 58.3182 45.9826C58.407 46.011 58.4932 46.0429 58.5766 46.0785C58.6601 46.114 58.7347 46.1584 58.8004 46.2117C58.8661 46.2649 58.9185 46.3307 58.9576 46.4088C58.9984 46.4852 59.0189 46.5775 59.0189 46.6859C59.0189 46.8102 58.9967 46.9256 58.9523 47.0322C58.9079 47.137 58.8421 47.2284 58.7551 47.3066C58.6681 47.383 58.5615 47.4433 58.4354 47.4877C58.3093 47.5321 58.1637 47.5543 57.9985 47.5543C57.8103 47.5543 57.6398 47.5242 57.487 47.4638C57.3343 47.4016 57.2046 47.3226 57.0981 47.2267L57.21 47.0455C57.2242 47.0224 57.2411 47.0047 57.2606 46.9922C57.2801 46.9798 57.305 46.9736 57.3352 46.9736C57.3672 46.9736 57.4009 46.986 57.4364 47.0109C57.4719 47.0357 57.5146 47.0633 57.5643 47.0935C57.6158 47.1237 57.678 47.1512 57.7508 47.176C57.8236 47.2009 57.9142 47.2133 58.0225 47.2133C58.1149 47.2133 58.1957 47.2018 58.2649 47.1787C58.3342 47.1538 58.3919 47.121 58.4381 47.0801C58.4843 47.0393 58.518 46.9922 58.5393 46.9389C58.5624 46.8857 58.574 46.8288 58.574 46.7684C58.574 46.6939 58.5535 46.6326 58.5127 46.5846C58.4736 46.5349 58.4212 46.4932 58.3555 46.4594C58.2898 46.4239 58.2143 46.3937 58.1291 46.3688C58.0456 46.3422 57.9595 46.3147 57.8707 46.2863C57.7836 46.2578 57.6975 46.2259 57.6122 46.1904C57.5288 46.1531 57.4542 46.1069 57.3885 46.0518C57.3227 45.9968 57.2695 45.9293 57.2286 45.8494C57.1895 45.7677 57.17 45.6691 57.17 45.5536C57.17 45.4506 57.1913 45.3521 57.2339 45.2579C57.2766 45.162 57.3387 45.0786 57.4204 45.0075C57.5021 44.9347 57.6025 44.877 57.7215 44.8343C57.8405 44.7917 57.9763 44.7704 58.1291 44.7704C58.3067 44.7704 58.4656 44.7988 58.6059 44.8557C58.748 44.9107 58.8706 44.9871 58.9736 45.0848L58.867 45.2579ZM61.0628 46.2969C60.8444 46.304 60.6579 46.3218 60.5034 46.3502C60.3506 46.3768 60.2254 46.4124 60.1277 46.4568C60.0318 46.5012 59.9617 46.5535 59.9173 46.6139C59.8746 46.6743 59.8533 46.7418 59.8533 46.8164C59.8533 46.8874 59.8649 46.9487 59.888 47.0002C59.9111 47.0517 59.9421 47.0944 59.9812 47.1281C60.0221 47.1601 60.0691 47.184 60.1224 47.2C60.1775 47.2142 60.2361 47.2213 60.2982 47.2213C60.3817 47.2213 60.4581 47.2133 60.5273 47.1974C60.5966 47.1796 60.6614 47.1547 60.7218 47.1228C60.784 47.0908 60.8426 47.0526 60.8976 47.0082C60.9545 46.9638 61.0095 46.9132 61.0628 46.8564V46.2969ZM59.531 45.194C59.6802 45.0501 59.8409 44.9427 60.0132 44.8716C60.1855 44.8006 60.3764 44.7651 60.5859 44.7651C60.7369 44.7651 60.871 44.7899 60.9882 44.8397C61.1054 44.8894 61.204 44.9587 61.2839 45.0475C61.3638 45.1363 61.4242 45.2437 61.4651 45.3698C61.5059 45.4959 61.5264 45.6345 61.5264 45.7854V47.5117H61.3159C61.2697 47.5117 61.2342 47.5046 61.2093 47.4904C61.1845 47.4744 61.1649 47.4442 61.1507 47.3998L61.0974 47.1441C61.0264 47.2098 60.9571 47.2684 60.8896 47.3199C60.8222 47.3696 60.7511 47.4123 60.6765 47.4478C60.6019 47.4815 60.522 47.5073 60.4368 47.525C60.3533 47.5446 60.26 47.5543 60.157 47.5543C60.0522 47.5543 59.9537 47.5401 59.8613 47.5117C59.769 47.4815 59.6882 47.4371 59.6189 47.3785C59.5514 47.3199 59.4972 47.2462 59.4564 47.1574C59.4173 47.0668 59.3978 46.9603 59.3978 46.8377C59.3978 46.7312 59.4271 46.629 59.4857 46.5313C59.5443 46.4319 59.6393 46.344 59.7707 46.2676C59.9022 46.1912 60.0736 46.1291 60.2849 46.0811C60.4963 46.0314 60.7556 46.003 61.0628 45.9959V45.7854C61.0628 45.5758 61.0175 45.4178 60.9269 45.3112C60.8364 45.2029 60.7041 45.1487 60.53 45.1487C60.4128 45.1487 60.3142 45.1638 60.2343 45.194C60.1561 45.2224 60.0878 45.2553 60.0292 45.2926C59.9723 45.3281 59.9226 45.3609 59.88 45.3911C59.8391 45.4196 59.7983 45.4338 59.7574 45.4338C59.7255 45.4338 59.6979 45.4258 59.6748 45.4098C59.6518 45.392 59.6322 45.3707 59.6162 45.3458L59.531 45.194ZM62.6962 45.2047C62.7549 45.1389 62.817 45.0794 62.8827 45.0262C62.9484 44.9729 63.0177 44.9276 63.0905 44.8903C63.1651 44.8512 63.2433 44.8219 63.325 44.8024C63.4084 44.7811 63.4981 44.7704 63.594 44.7704C63.7414 44.7704 63.8711 44.7953 63.983 44.845C64.0966 44.893 64.1908 44.9622 64.2654 45.0528C64.3417 45.1416 64.3995 45.2491 64.4385 45.3752C64.4776 45.5012 64.4971 45.6407 64.4971 45.7934V47.5117H64.0203V45.7934C64.0203 45.5892 63.9732 45.4311 63.8791 45.3192C63.7867 45.2055 63.6455 45.1487 63.4555 45.1487C63.3152 45.1487 63.1838 45.1825 63.0612 45.2499C62.9405 45.3174 62.8286 45.4089 62.7256 45.5243V47.5117H62.2487V44.813H62.5337C62.6012 44.813 62.643 44.8459 62.659 44.9116L62.6962 45.2047ZM68.0349 47.1015C68.1823 47.1015 68.3093 47.0846 68.4158 47.0508C68.5224 47.0171 68.6094 46.97 68.6769 46.9096C68.7462 46.8475 68.7968 46.7747 68.8288 46.6912C68.8607 46.6059 68.8767 46.5127 68.8767 46.4115C68.8767 46.2143 68.8066 46.0589 68.6663 45.9453C68.5259 45.8298 68.3155 45.7721 68.0349 45.7721H67.209V47.1015H68.0349ZM67.209 44.1017V45.4045H67.891C68.0367 45.4045 68.1628 45.3885 68.2693 45.3565C68.3777 45.3245 68.4665 45.2801 68.5357 45.2233C68.6068 45.1665 68.6592 45.0981 68.6929 45.0182C68.7266 44.9365 68.7435 44.8477 68.7435 44.7518C68.7435 44.5262 68.676 44.3619 68.541 44.2589C68.4061 44.1541 68.1965 44.1017 67.9123 44.1017H67.209ZM67.9123 43.6941C68.1468 43.6941 68.3483 43.7172 68.5171 43.7634C68.6876 43.8096 68.827 43.8753 68.9353 43.9605C69.0454 44.0458 69.1262 44.1506 69.1778 44.2749C69.2293 44.3974 69.255 44.536 69.255 44.6905C69.255 44.7846 69.2399 44.8752 69.2097 44.9622C69.1813 45.0475 69.1378 45.1274 69.0792 45.202C69.0206 45.2766 68.946 45.3441 68.8554 45.4045C68.7666 45.4631 68.6618 45.511 68.541 45.5483C68.8217 45.6016 69.0321 45.7019 69.1724 45.8494C69.3145 45.995 69.3855 46.1868 69.3855 46.4248C69.3855 46.5864 69.3554 46.7338 69.295 46.867C69.2364 47.0002 69.1493 47.1148 69.0339 47.2107C68.9202 47.3066 68.7799 47.3812 68.613 47.4345C68.446 47.486 68.256 47.5117 68.0429 47.5117H66.6949V43.6941H67.9123ZM71.7921 45.868C71.7921 45.7579 71.7761 45.6575 71.7441 45.567C71.714 45.4746 71.6687 45.3956 71.6083 45.3299C71.5497 45.2624 71.4777 45.2109 71.3925 45.1753C71.3072 45.1381 71.2105 45.1194 71.1021 45.1194C70.8748 45.1194 70.6945 45.186 70.5613 45.3192C70.4299 45.4506 70.3482 45.6336 70.3162 45.868H71.7921ZM72.1757 47.1334C72.1171 47.2045 72.047 47.2666 71.9653 47.3199C71.8836 47.3714 71.7957 47.414 71.7015 47.4478C71.6092 47.4815 71.5133 47.5064 71.4138 47.5224C71.3143 47.5401 71.2158 47.549 71.1181 47.549C70.9316 47.549 70.7593 47.5179 70.6013 47.4558C70.445 47.3918 70.3091 47.2995 70.1937 47.1787C70.08 47.0562 69.9912 46.9052 69.9273 46.7258C69.8633 46.5464 69.8314 46.3404 69.8314 46.1078C69.8314 45.9195 69.8598 45.7437 69.9166 45.5803C69.9752 45.4169 70.0587 45.2757 70.167 45.1567C70.2754 45.0359 70.4077 44.9418 70.564 44.8743C70.7203 44.805 70.8961 44.7704 71.0915 44.7704C71.2531 44.7704 71.4023 44.7979 71.539 44.853C71.6775 44.9063 71.7965 44.9844 71.896 45.0874C71.9972 45.1887 72.0763 45.3148 72.1331 45.4657C72.1899 45.6149 72.2183 45.7854 72.2183 45.9772C72.2183 46.0518 72.2104 46.1015 72.1944 46.1264C72.1784 46.1513 72.1482 46.1637 72.1038 46.1637H70.3002C70.3056 46.3342 70.3287 46.4825 70.3695 46.6086C70.4121 46.7347 70.4707 46.8404 70.5453 46.9256C70.6199 47.0091 70.7087 47.0722 70.8117 47.1148C70.9147 47.1556 71.0302 47.176 71.1581 47.176C71.2771 47.176 71.3792 47.1627 71.4644 47.1361C71.5514 47.1077 71.626 47.0775 71.6882 47.0455C71.7504 47.0135 71.8019 46.9842 71.8427 46.9576C71.8853 46.9292 71.9218 46.915 71.9519 46.915C71.991 46.915 72.0212 46.9301 72.0425 46.9603L72.1757 47.1334ZM73.2777 43.5876V45.8973H73.4002C73.4358 45.8973 73.4651 45.8929 73.4881 45.884C73.513 45.8733 73.5388 45.8529 73.5654 45.8227L74.4179 44.9089C74.4428 44.8788 74.4685 44.8557 74.4952 44.8397C74.5236 44.8219 74.5609 44.813 74.607 44.813H75.036L74.0423 45.8707C73.9943 45.931 73.9428 45.9781 73.8878 46.0119C73.9197 46.0332 73.9481 46.058 73.973 46.0865C73.9996 46.1131 74.0245 46.1442 74.0476 46.1797L75.1026 47.5117H74.679C74.6381 47.5117 74.6026 47.5055 74.5724 47.4931C74.544 47.4789 74.5191 47.454 74.4978 47.4185L73.6107 46.3129C73.5841 46.2756 73.5574 46.2516 73.5308 46.241C73.5059 46.2285 73.4668 46.2223 73.4136 46.2223H73.2777V47.5117H72.8008V43.5876H73.2777ZM77.1618 45.868C77.1618 45.7579 77.1458 45.6575 77.1139 45.567C77.0837 45.4746 77.0384 45.3956 76.978 45.3299C76.9194 45.2624 76.8475 45.2109 76.7622 45.1753C76.677 45.1381 76.5802 45.1194 76.4718 45.1194C76.2445 45.1194 76.0642 45.186 75.931 45.3192C75.7996 45.4506 75.7179 45.6336 75.6859 45.868H77.1618ZM77.5454 47.1334C77.4868 47.2045 77.4167 47.2666 77.335 47.3199C77.2533 47.3714 77.1654 47.414 77.0712 47.4478C76.9789 47.4815 76.883 47.5064 76.7835 47.5224C76.6841 47.5401 76.5855 47.549 76.4878 47.549C76.3013 47.549 76.1291 47.5179 75.971 47.4558C75.8147 47.3918 75.6788 47.2995 75.5634 47.1787C75.4497 47.0562 75.3609 46.9052 75.297 46.7258C75.2331 46.5464 75.2011 46.3404 75.2011 46.1078C75.2011 45.9195 75.2295 45.7437 75.2863 45.5803C75.3449 45.4169 75.4284 45.2757 75.5368 45.1567C75.6451 45.0359 75.7774 44.9418 75.9337 44.8743C76.09 44.805 76.2658 44.7704 76.4612 44.7704C76.6228 44.7704 76.772 44.7979 76.9087 44.853C77.0473 44.9063 77.1663 44.9844 77.2657 45.0874C77.367 45.1887 77.446 45.3148 77.5028 45.4657C77.5597 45.6149 77.5881 45.7854 77.5881 45.9772C77.5881 46.0518 77.5801 46.1015 77.5641 46.1264C77.5481 46.1513 77.5179 46.1637 77.4735 46.1637H75.67C75.6753 46.3342 75.6984 46.4825 75.7392 46.6086C75.7818 46.7347 75.8405 46.8404 75.9151 46.9256C75.9896 47.0091 76.0784 47.0722 76.1815 47.1148C76.2845 47.1556 76.3999 47.176 76.5278 47.176C76.6468 47.176 76.7489 47.1627 76.8341 47.1361C76.9212 47.1077 76.9958 47.0775 77.0579 47.0455C77.1201 47.0135 77.1716 46.9842 77.2124 46.9576C77.2551 46.9292 77.2915 46.915 77.3217 46.915C77.3607 46.915 77.3909 46.9301 77.4122 46.9603L77.5454 47.1334ZM78.6208 45.3538C78.706 45.1691 78.8108 45.0253 78.9351 44.9223C79.0594 44.8175 79.2113 44.7651 79.3907 44.7651C79.4475 44.7651 79.5017 44.7713 79.5532 44.7837C79.6065 44.7962 79.6535 44.8157 79.6944 44.8423L79.6597 45.1967C79.6491 45.2411 79.6224 45.2633 79.5798 45.2633C79.555 45.2633 79.5186 45.2579 79.4706 45.2473C79.4226 45.2366 79.3685 45.2313 79.3081 45.2313C79.2228 45.2313 79.1465 45.2437 79.079 45.2686C79.0133 45.2935 78.9538 45.3308 78.9005 45.3805C78.849 45.4284 78.8019 45.4888 78.7593 45.5616C78.7184 45.6327 78.6812 45.7144 78.6474 45.8067V47.5117H78.1705V44.813H78.4423C78.4938 44.813 78.5293 44.8228 78.5488 44.8423C78.5684 44.8619 78.5817 44.8956 78.5888 44.9436L78.6208 45.3538ZM80.6122 44.813V47.7115C80.6122 47.8199 80.598 47.9202 80.5696 48.0126C80.5411 48.1067 80.4959 48.1884 80.4337 48.2577C80.3715 48.3269 80.2916 48.3811 80.1939 48.4202C80.098 48.461 79.9826 48.4814 79.8476 48.4814C79.7908 48.4814 79.7384 48.477 79.6904 48.4681C79.6425 48.4592 79.5945 48.4459 79.5466 48.4282L79.5652 48.1724C79.5688 48.1564 79.575 48.144 79.5839 48.1351C79.591 48.128 79.6016 48.1236 79.6158 48.1218C79.63 48.12 79.6487 48.1191 79.6718 48.1191C79.6931 48.1209 79.7206 48.1218 79.7544 48.1218C79.8929 48.1218 79.9915 48.0889 80.0501 48.0232C80.1087 47.9593 80.138 47.8554 80.138 47.7115V44.813H80.6122ZM80.7108 43.9659C80.7108 44.012 80.701 44.0556 80.6815 44.0964C80.6637 44.1355 80.6388 44.171 80.6069 44.203C80.5767 44.2332 80.5411 44.2571 80.5003 44.2749C80.4594 44.2927 80.4159 44.3015 80.3698 44.3015C80.3236 44.3015 80.2801 44.2927 80.2392 44.2749C80.2001 44.2571 80.1655 44.2332 80.1353 44.203C80.1051 44.171 80.0812 44.1355 80.0634 44.0964C80.0456 44.0556 80.0368 44.012 80.0368 43.9659C80.0368 43.9197 80.0456 43.8762 80.0634 43.8353C80.0812 43.7927 80.1051 43.7563 80.1353 43.7261C80.1655 43.6941 80.2001 43.6693 80.2392 43.6515C80.2801 43.6338 80.3236 43.6249 80.3698 43.6249C80.4159 43.6249 80.4594 43.6338 80.5003 43.6515C80.5411 43.6693 80.5767 43.6941 80.6069 43.7261C80.6388 43.7563 80.6637 43.7927 80.6815 43.8353C80.701 43.8762 80.7108 43.9197 80.7108 43.9659ZM82.8539 46.2969C82.6354 46.304 82.449 46.3218 82.2944 46.3502C82.1417 46.3768 82.0165 46.4124 81.9188 46.4568C81.8229 46.5012 81.7528 46.5535 81.7084 46.6139C81.6657 46.6743 81.6444 46.7418 81.6444 46.8164C81.6444 46.8874 81.656 46.9487 81.6791 47.0002C81.7021 47.0517 81.7332 47.0944 81.7723 47.1281C81.8131 47.1601 81.8602 47.184 81.9135 47.2C81.9685 47.2142 82.0272 47.2213 82.0893 47.2213C82.1728 47.2213 82.2492 47.2133 82.3184 47.1974C82.3877 47.1796 82.4525 47.1547 82.5129 47.1228C82.5751 47.0908 82.6337 47.0526 82.6887 47.0082C82.7456 46.9638 82.8006 46.9132 82.8539 46.8564V46.2969ZM81.3221 45.194C81.4713 45.0501 81.632 44.9427 81.8043 44.8716C81.9765 44.8006 82.1675 44.7651 82.377 44.7651C82.528 44.7651 82.6621 44.7899 82.7793 44.8397C82.8965 44.8894 82.9951 44.9587 83.075 45.0475C83.1549 45.1363 83.2153 45.2437 83.2562 45.3698C83.297 45.4959 83.3174 45.6345 83.3174 45.7854V47.5117H83.107C83.0608 47.5117 83.0253 47.5046 83.0004 47.4904C82.9756 47.4744 82.956 47.4442 82.9418 47.3998L82.8885 47.1441C82.8175 47.2098 82.7482 47.2684 82.6807 47.3199C82.6132 47.3696 82.5422 47.4123 82.4676 47.4478C82.393 47.4815 82.3131 47.5073 82.2278 47.525C82.1444 47.5446 82.0511 47.5543 81.9481 47.5543C81.8433 47.5543 81.7448 47.5401 81.6524 47.5117C81.5601 47.4815 81.4792 47.4371 81.41 47.3785C81.3425 47.3199 81.2883 47.2462 81.2475 47.1574C81.2084 47.0668 81.1889 46.9603 81.1889 46.8377C81.1889 46.7312 81.2182 46.629 81.2768 46.5313C81.3354 46.4319 81.4304 46.344 81.5618 46.2676C81.6933 46.1912 81.8646 46.1291 82.076 46.0811C82.2873 46.0314 82.5466 46.003 82.8539 45.9959V45.7854C82.8539 45.5758 82.8086 45.4178 82.718 45.3112C82.6275 45.2029 82.4951 45.1487 82.3211 45.1487C82.2039 45.1487 82.1053 45.1638 82.0254 45.194C81.9472 45.2224 81.8789 45.2553 81.8202 45.2926C81.7634 45.3281 81.7137 45.3609 81.6711 45.3911C81.6302 45.4196 81.5894 45.4338 81.5485 45.4338C81.5165 45.4338 81.489 45.4258 81.4659 45.4098C81.4428 45.392 81.4233 45.3707 81.4073 45.3458L81.3221 45.194Z" fill="white"/>
</svg>
